<svg width="274" height="236" viewBox="0 0 274 236" fill="none" xmlns="http://www.w3.org/2000/svg">
<path d="M230.05 172.1C230.05 172.1 262.98 86.1999 245.92 73.0999C228.86 59.9999 157.31 65.2899 153.39 69.9699C149.47 74.6499 126.39 178.05 126.39 178.05L230.05 172.1Z" fill="#231F20"/>
<path d="M126.34 178.57C126.268 178.569 126.198 178.554 126.132 178.525C126.067 178.495 126.008 178.453 125.96 178.4C125.91 178.341 125.875 178.272 125.858 178.197C125.84 178.122 125.841 178.044 125.86 177.97C126.8 173.74 149.05 74.3899 153.01 69.6699C155.18 67.0799 174.28 64.6699 194.72 64.3999C206.72 64.2399 235.81 64.7299 246.23 72.7199C253.48 78.2799 253.02 96.7199 244.87 127.64C238.87 150.51 230.6 172.06 230.52 172.27C230.486 172.361 230.427 172.44 230.348 172.497C230.27 172.554 230.177 172.586 230.08 172.59L126.37 178.59L126.34 178.57ZM198.5 65.3699H194.74C173.74 65.6499 155.49 68.2399 153.74 70.2899C150.74 73.8999 134.98 141.62 126.94 177.52L229.67 171.6C231.78 166.01 261.67 85.8199 245.59 73.4899C238.82 68.2999 221.75 65.3699 198.5 65.3699Z" fill="#231F20"/>
<path d="M96.34 97.8802L81.5 147.69C81.5 147.69 112.11 151.64 112.11 150.51C112.11 149.38 118.11 95.7002 118.11 95.7002L96.34 97.8802Z" fill="white"/>
<path d="M110.57 151.16C105.4 151.16 90.73 149.38 81.44 148.16C81.3683 148.15 81.2996 148.125 81.2384 148.086C81.1773 148.047 81.1251 147.995 81.0854 147.935C81.0457 147.874 81.0193 147.806 81.008 147.735C80.9967 147.663 81.0008 147.59 81.02 147.52L95.86 97.7101C95.8875 97.6139 95.9431 97.5283 96.0198 97.4641C96.0964 97.3999 96.1905 97.3602 96.29 97.3501L118.07 95.1701C118.144 95.1632 118.218 95.1732 118.287 95.1992C118.356 95.2251 118.419 95.2665 118.47 95.3201C118.524 95.3706 118.564 95.4334 118.589 95.503C118.613 95.5726 118.62 95.647 118.61 95.7201C116.54 114.22 112.61 149.47 112.61 150.48C112.601 150.644 112.529 150.798 112.41 150.91C111.824 151.132 111.194 151.217 110.57 151.16ZM82.11 147.27C92.75 148.63 109.27 150.52 111.59 150.19C111.97 145.87 116.84 102.27 117.51 96.2601L96.69 98.3501L82.11 147.27Z" fill="#231F20"/>
<path d="M68.21 85.5101C68.34 85.6501 73.61 84.2401 76.33 87.5101C79.05 90.7801 75.52 93.7001 66.93 92.0101C58.34 90.3201 68.21 85.5101 68.21 85.5101Z" fill="white"/>
<path d="M71.46 92.9997C69.9046 92.9842 68.3542 92.8201 66.83 92.5097C64.35 92.0197 63.07 91.2197 62.92 90.0497C62.63 87.7897 67.09 85.4997 67.99 85.0497C68.0938 85.0147 68.2062 85.0147 68.31 85.0497H68.64C70.04 84.8797 74.3 84.3397 76.72 87.2397C77.8 88.5197 78.03 89.8297 77.39 90.9297C76.56 92.2397 74.41 92.9997 71.46 92.9997ZM68.32 85.9997C66.37 86.9997 63.8 88.7597 63.94 89.8697C63.94 90.2397 64.46 90.9397 67.03 91.4497C72.84 92.5897 75.76 91.5297 76.5 90.2797C76.6767 89.8555 76.7168 89.3867 76.6146 88.9386C76.5125 88.4905 76.2731 88.0854 75.93 87.7797C73.87 85.3197 70.16 85.7797 68.77 85.9597C68.58 85.9997 68.44 85.9997 68.32 85.9997V85.9997Z" fill="#231F20"/>
<path d="M55 75.06C55 75.06 53.92 73.82 54.6 72.95C54.753 72.7734 54.9458 72.6358 55.1626 72.5486C55.3794 72.4614 55.6138 72.4271 55.8465 72.4486C56.0792 72.4701 56.3034 72.5468 56.5005 72.6723C56.6976 72.7977 56.862 72.9684 56.98 73.17C56.98 73.17 55.28 73.78 55 75.06Z" fill="white"/>
<path d="M55 75.5702C54.9267 75.5709 54.854 75.5562 54.7868 75.5269C54.7196 75.4976 54.6593 75.4544 54.61 75.4002C54.11 74.8202 53.45 73.5802 54.2 72.6402C54.3677 72.4198 54.5839 72.2411 54.832 72.118C55.08 71.9948 55.3531 71.9306 55.63 71.9302C55.9708 71.936 56.3056 72.0213 56.6077 72.1792C56.9098 72.3372 57.1708 72.5635 57.37 72.8402C57.4248 72.9038 57.4627 72.9802 57.4802 73.0624C57.4976 73.1445 57.4941 73.2297 57.47 73.3102C57.449 73.3901 57.4089 73.4637 57.3532 73.5246C57.2974 73.5856 57.2277 73.6321 57.15 73.6602C56.75 73.8002 55.68 74.3602 55.5 75.1702C55.4808 75.2632 55.4359 75.349 55.3706 75.4179C55.3052 75.4868 55.2219 75.5361 55.13 75.5602L55 75.5702ZM55.65 72.9602C55.5286 72.962 55.4091 72.9907 55.3001 73.0443C55.1912 73.0979 55.0955 73.1751 55.02 73.2702C54.963 73.3798 54.9333 73.5016 54.9333 73.6252C54.9333 73.7488 54.963 73.8705 55.02 73.9802C55.3212 73.6105 55.6872 73.2988 56.1 73.0602C55.9618 72.9996 55.8094 72.9788 55.66 73.0002L55.65 72.9602Z" fill="#231F20"/>
<path d="M57.36 73.1201C56.7651 73.1684 56.203 73.4125 55.7615 73.8142C55.3201 74.2158 55.0241 74.7524 54.92 75.3401L76.37 103.25C76.5023 101.913 77.0799 100.658 78.0101 99.6882C78.9403 98.7182 80.1693 98.0885 81.5 97.9001L57.36 73.1201Z" fill="white"/>
<path d="M76.36 103.76C76.2825 103.759 76.2062 103.741 76.1369 103.706C76.0676 103.672 76.0071 103.622 75.96 103.56L54.51 75.6501C54.4616 75.587 54.4283 75.5136 54.4127 75.4356C54.3971 75.3575 54.3996 75.277 54.42 75.2001C54.5612 74.5062 54.9245 73.8772 55.4549 73.4081C55.9853 72.939 56.6541 72.6554 57.36 72.6001C57.4292 72.6008 57.4976 72.6153 57.5611 72.6428C57.6247 72.6703 57.6821 72.7101 57.73 72.7601L81.87 97.5401C81.9371 97.6066 81.9839 97.6907 82.0052 97.7828C82.0264 97.8748 82.0211 97.9709 81.99 98.0601C81.9619 98.1496 81.9098 98.2296 81.8392 98.2913C81.7686 98.3531 81.6824 98.3942 81.59 98.4101C80.3711 98.5768 79.2437 99.1487 78.3893 100.034C77.535 100.919 77.0034 102.066 76.88 103.29C76.8716 103.394 76.8317 103.493 76.7656 103.573C76.6994 103.654 76.6102 103.712 76.51 103.74L76.36 103.76ZM55.49 75.2401L76.1 102.05C76.3902 100.995 76.9462 100.032 77.7147 99.2527C78.4833 98.4736 79.4388 97.9046 80.49 97.6001L57.17 73.6601C56.7712 73.7422 56.403 73.9334 56.1064 74.2123C55.8097 74.4913 55.5964 74.8471 55.49 75.2401V75.2401Z" fill="#231F20"/>
<path d="M76.37 103.25L83.69 107.05L84.6 106.2L81.5 97.9001C81.5 97.9001 75.8 97.3301 76.37 103.25Z" fill="white"/>
<path d="M83.69 107.56C83.6061 107.561 83.5234 107.541 83.45 107.5L76.13 103.7C76.0523 103.661 75.9857 103.603 75.9367 103.531C75.8877 103.46 75.8579 103.377 75.85 103.29C75.7108 102.494 75.7546 101.677 75.9781 100.901C76.2016 100.125 76.599 99.4099 77.14 98.8101C77.7435 98.2911 78.4442 97.8974 79.2013 97.6519C79.9584 97.4064 80.7568 97.314 81.55 97.3801C81.648 97.3893 81.7414 97.4261 81.8192 97.4863C81.8971 97.5465 81.9564 97.6276 81.99 97.7201L85.08 106.02C85.1171 106.116 85.1246 106.22 85.1014 106.32C85.0782 106.42 85.0254 106.511 84.95 106.58L84.04 107.43C83.9429 107.514 83.8186 107.561 83.69 107.56V107.56ZM76.86 102.92L83.6 106.42L84 106.06L81.14 98.4001C79.944 98.366 78.777 98.7716 77.86 99.5401C77.4584 99.9974 77.1609 100.536 76.9883 101.12C76.8156 101.704 76.7718 102.318 76.86 102.92V102.92Z" fill="#231F20"/>
<path d="M83.69 107.05L85.09 108.55L85.75 107.8L84.6 106.2L83.69 107.05Z" fill="white"/>
<path d="M85.09 109.07C85.0196 109.071 84.95 109.056 84.8861 109.026C84.8221 108.997 84.7654 108.954 84.72 108.9L83.31 107.4C83.219 107.298 83.1691 107.167 83.17 107.03C83.1777 106.893 83.2387 106.764 83.34 106.67L84.25 105.82C84.3041 105.771 84.368 105.734 84.4374 105.711C84.5068 105.689 84.5802 105.681 84.6528 105.688C84.7255 105.696 84.7957 105.719 84.859 105.755C84.9222 105.792 84.9771 105.841 85.02 105.9L86.17 107.5C86.243 107.591 86.2829 107.704 86.2829 107.82C86.2829 107.937 86.243 108.05 86.17 108.14L85.51 108.89C85.464 108.946 85.406 108.992 85.3403 109.023C85.2745 109.054 85.2027 109.07 85.13 109.07H85.09ZM84.42 107.07L85.08 107.78L84.51 106.99L84.42 107.07Z" fill="#231F20"/>
<path d="M69.57 105.44C70.75 103.05 73.71 97.9802 74.39 95.7802C76.27 89.7802 65.26 84.1602 61.7 84.1602C58.14 84.1602 50.7 96.6002 50.7 103.25C50.7 109.9 75.35 160.82 75.35 160.82L99 150L69.57 105.44Z" fill="white"/>
<path d="M75.38 161.34C75.2838 161.34 75.1895 161.313 75.1081 161.262C75.0267 161.21 74.9615 161.137 74.92 161.05C73.92 158.97 50.21 109.93 50.21 103.25C50.21 96.5701 57.73 83.6401 61.7 83.6401C64.44 83.6401 70.81 86.5601 73.7 90.4401C74.3397 91.1861 74.7865 92.0777 75.001 93.0367C75.2154 93.9957 75.191 94.9928 74.93 95.9401C73.9765 98.298 72.8605 100.587 71.59 102.79C71.06 103.79 70.59 104.69 70.21 105.4L99.5 149.7C99.5409 149.763 99.5682 149.834 99.5803 149.908C99.5923 149.982 99.5888 150.058 99.57 150.13C99.5485 150.2 99.5124 150.265 99.4642 150.32C99.4159 150.375 99.3566 150.42 99.29 150.45L75.63 161.29C75.5549 161.335 75.4666 161.353 75.38 161.34ZM61.7 84.6701C58.57 84.6701 51.25 96.6701 51.25 103.25C51.25 109.37 73.18 155.06 75.62 160.15L98.27 149.77L69.14 105.77C69.0962 105.69 69.0733 105.601 69.0733 105.51C69.0733 105.419 69.0962 105.33 69.14 105.25C69.52 104.49 70.07 103.46 70.67 102.34C71.9067 100.193 72.9959 97.9648 73.93 95.6701C74.141 94.8775 74.1537 94.0452 73.9671 93.2465C73.7805 92.4478 73.4003 91.7072 72.86 91.0901C70.07 87.3001 64 84.6701 61.7 84.6701Z" fill="#231F20"/>
<path d="M195.4 115.52L224.55 108.09C223.55 106.68 211.79 69.3499 199.39 63.2399C188.54 56.0399 162.81 51.2399 140.08 52.8699C140.08 52.8699 134.08 52.6499 123.56 56.8199C97.94 66.9999 93 102.45 93 102.45L113 109.36C113 109.36 109.18 155.21 105.57 179.18C105.57 179.18 149.79 187.83 214.17 177.18C214.22 177.16 195.52 122.3 195.4 115.52Z" fill="#3F3FFF"/>
<path d="M193 64.2701C189.14 68.2701 186.13 73.0701 181.87 76.8401C172.69 84.9601 160.68 91.3901 148.09 90.6101C133.25 89.6901 120.42 79.5501 117.2 64.7801C115.2 55.5201 117.28 46.9201 124.44 40.3801C129.39 35.8601 135.73 33.1001 142.21 31.3801C159.42 26.7701 178.73 29.2201 193.42 39.3201C195.82 40.7975 197.846 42.8099 199.34 45.2001C203.01 51.8501 198.79 58.6901 194.03 63.2601C193.71 63.5701 193.37 63.9201 193 64.2701Z" fill="#3F3FFF"/>
<path d="M142.37 74.7502C142.22 74.7502 139.46 78.1102 139.32 78.1602C140.89 84.0802 142.55 91.7902 149.25 92.5502C162.84 94.1002 164.9 75.9802 167.46 67.4302C158.05 70.0702 151.41 71.1302 142.37 74.7502Z" fill="#231F20"/>
<path d="M150.84 93.1498C150.292 93.1455 149.744 93.1121 149.2 93.0498C142.51 92.2898 140.62 85.0498 139.09 79.2598L138.83 78.2598C138.806 78.1616 138.812 78.0584 138.848 77.9637C138.883 77.8691 138.947 77.7875 139.03 77.7298C139.19 77.5798 139.92 76.7298 140.45 76.1098C142 74.3298 142.02 74.3198 142.18 74.2498C147.715 72.1099 153.396 70.3688 159.18 69.0398C161.73 68.3998 164.36 67.7398 167.28 66.9198C167.366 66.8958 167.457 66.8952 167.543 66.9181C167.629 66.9409 167.707 66.9864 167.77 67.0498C167.83 67.1146 167.872 67.1935 167.893 67.2793C167.914 67.365 167.913 67.4546 167.89 67.5398C167.51 68.8098 167.14 70.3098 166.74 71.8998C164.67 80.4598 161.5 93.1398 150.84 93.1498ZM139.84 78.3198L140.02 79.0098C141.55 84.8098 143.27 91.3798 149.28 92.0098C160.41 93.2798 163.52 80.7698 165.8 71.6298C166.11 70.3798 166.41 69.1798 166.71 68.0998C164.12 68.8098 161.71 69.4098 159.44 69.9898C153.709 71.2908 148.081 73.0087 142.6 75.1298C142.4 75.3298 141.7 76.1298 141.18 76.7398C140.48 77.6398 140.09 78.0798 139.87 78.3198H139.84Z" fill="#231F20"/>
<path d="M155.53 5.00018C153.53 4.92018 152.25 5.79018 150.53 6.41018C147.18 7.59018 145.62 4.79018 142.74 3.30018C138.206 0.94284 132.995 0.227506 127.993 1.27564C122.991 2.32377 118.506 5.07076 115.3 9.05018C113.305 11.4134 112.012 14.289 111.57 17.3502C111.15 20.8102 112.12 24.3502 111.52 27.7702C111.153 29.7343 110.293 31.5728 109.019 33.1124C107.745 34.6519 106.101 35.8419 104.24 36.5702C107.441 36.8173 110.662 36.5129 113.76 35.6702C112.869 36.7287 111.762 37.5843 110.514 38.1794C109.265 38.7744 107.903 39.0952 106.52 39.1202C109.709 41.5723 113.627 42.8855 117.65 42.8502L110.6 44.5002C116.6 48.3502 123.91 49.5002 130.98 49.1802C145.06 48.4502 168.64 42.6902 168.23 24.4502C168 17.4602 164.16 5.40018 155.53 5.00018Z" fill="white"/>
<path d="M128.56 49.77C123.17 49.77 116.27 48.77 110.29 44.95C110.208 44.8953 110.144 44.818 110.104 44.7275C110.065 44.637 110.053 44.5371 110.07 44.44C110.091 44.3448 110.137 44.2572 110.204 44.1866C110.271 44.116 110.356 44.0653 110.45 44.04L114.37 43.13C111.386 42.6216 108.571 41.3927 106.17 39.55C106.086 39.487 106.024 39.3992 105.993 39.299C105.961 39.1989 105.962 39.0914 105.996 38.9918C106.029 38.8923 106.093 38.8057 106.178 38.7443C106.263 38.683 106.365 38.65 106.47 38.65C108.523 38.6163 110.506 37.8944 112.1 36.6C109.49 37.1411 106.817 37.3095 104.16 37.1C104.047 37.0897 103.942 37.0416 103.86 36.9635C103.778 36.8854 103.725 36.7819 103.71 36.67C103.692 36.5567 103.714 36.4407 103.772 36.342C103.831 36.2433 103.922 36.1683 104.03 36.13C105.818 35.4422 107.399 34.3082 108.625 32.8361C109.85 31.364 110.678 29.6027 111.03 27.72C111.271 25.9225 111.291 24.1023 111.09 22.3C110.934 20.637 110.934 18.963 111.09 17.3C111.545 14.1438 112.875 11.1783 114.93 8.73996C118.209 4.6707 122.796 1.86239 127.911 0.792299C133.027 -0.277795 138.355 0.456345 142.99 2.86995C143.842 3.33518 144.652 3.87389 145.41 4.47996C147.03 5.70996 148.31 6.67996 150.41 5.94996C150.86 5.78996 151.28 5.60995 151.69 5.43995C152.91 4.82012 154.261 4.50125 155.63 4.50995V4.50995C164.29 4.88995 168.63 16.63 168.77 24.45C168.95 32.74 164.42 39.27 155.3 43.84C146.18 48.41 135.3 49.47 131.05 49.69C130.21 49.75 129.4 49.77 128.56 49.77ZM111.86 44.77C118.32 48.52 125.73 49.02 130.92 48.77C135.08 48.55 145.72 47.56 154.77 43.02C163.52 38.64 167.86 32.43 167.69 24.55C167.52 17.11 163.53 5.93995 155.51 5.54995C154.29 5.55847 153.089 5.84941 152 6.39996C151.57 6.57996 151.13 6.76996 150.66 6.92996C148.07 7.83996 146.45 6.60996 144.74 5.30996C144.029 4.74063 143.27 4.23532 142.47 3.79995C138.04 1.48904 132.947 0.785087 128.057 1.80799C123.166 2.8309 118.782 5.5174 115.65 9.40996C113.72 11.6877 112.463 14.4579 112.02 17.41C111.87 19.0031 111.87 20.6068 112.02 22.2C112.223 24.0829 112.196 25.9835 111.94 27.86C111.624 29.573 110.946 31.1987 109.951 32.6284C108.956 34.0581 107.667 35.2588 106.17 36.15C108.664 36.1467 111.146 35.8104 113.55 35.15C113.654 35.1199 113.764 35.1242 113.865 35.162C113.966 35.1998 114.052 35.2693 114.11 35.36C114.171 35.4462 114.204 35.5493 114.204 35.655C114.204 35.7606 114.171 35.8637 114.11 35.95C112.527 37.8329 110.319 39.0826 107.89 39.47C110.782 41.3557 114.168 42.3438 117.62 42.31C117.743 42.3068 117.864 42.3504 117.956 42.4319C118.049 42.5135 118.107 42.6271 118.12 42.75C118.136 42.8724 118.106 42.9963 118.035 43.0978C117.965 43.1993 117.86 43.2713 117.74 43.3L111.86 44.77Z" fill="#231F20"/>
<path d="M138.32 60.9398L139.32 78.1598C139.32 78.1598 147.19 87.1598 157.32 81.6298C167.45 76.0998 167.06 67.3298 167.06 67.3298L160.41 34.9998C160.41 34.9998 151.22 32.8798 148.88 14.7798C141.04 20.987 131.671 24.9635 121.76 26.2898C121.76 26.2898 121.94 46.5398 125.51 54.5898C129.08 62.6398 138.32 60.9398 138.32 60.9398Z" fill="white"/>
<path d="M150.67 83.9201C143.79 83.9201 139 78.5701 138.94 78.4901C138.866 78.4075 138.823 78.3012 138.82 78.1901L137.82 61.5001C135.71 61.7101 128.19 61.9101 125.02 54.7601C121.45 46.7601 121.24 27.0901 121.23 26.2601C121.231 26.1394 121.275 26.0228 121.353 25.9313C121.432 25.8397 121.541 25.7791 121.66 25.7601C131.466 24.4231 140.738 20.4948 148.52 14.3801C148.589 14.32 148.673 14.2798 148.762 14.264C148.852 14.2481 148.945 14.2571 149.03 14.2901C149.114 14.3227 149.188 14.3768 149.244 14.447C149.3 14.5173 149.337 14.6012 149.35 14.6901C150.53 23.8501 153.51 28.7401 155.8 31.2401C157.037 32.7335 158.664 33.8549 160.5 34.4801C160.592 34.5042 160.675 34.5535 160.741 34.6224C160.806 34.6913 160.851 34.7771 160.87 34.8701L167.53 67.2301C167.53 67.4001 167.83 76.4501 157.53 82.0701C155.437 83.2582 153.076 83.8947 150.67 83.9201ZM139.8 77.9201C140.8 79.0101 147.96 86.1501 157.09 81.1601C166.81 75.8401 166.57 67.3901 166.57 67.3101L159.98 35.3101C158.32 34.7601 150.8 31.4401 148.51 15.6401C140.823 21.4467 131.8 25.2291 122.27 26.6401C122.27 29.6401 122.77 47.1001 125.96 54.3101C129.33 61.8901 137.87 60.4601 138.23 60.4001C138.299 60.3866 138.371 60.3877 138.439 60.4032C138.508 60.4187 138.573 60.4483 138.63 60.4901C138.685 60.5362 138.729 60.5926 138.762 60.6561C138.795 60.7196 138.814 60.789 138.82 60.8601L139.8 77.9201Z" fill="#231F20"/>
<path d="M156.66 44.0598C159.009 44.4137 161.403 43.8242 163.32 42.4198C164.614 41.3951 165.623 40.0548 166.25 38.5278C166.877 37.0008 167.101 35.3383 166.9 33.6998C166.839 32.4753 166.496 31.2812 165.9 30.2099C165.608 29.674 165.204 29.2074 164.716 28.8416C164.228 28.4757 163.666 28.2194 163.07 28.0899C161.593 27.998 160.127 28.3875 158.89 29.1999C156.95 30.1999 156.89 31.3098 155.83 32.9498C155.95 32.7998 156.04 32.3799 156.16 32.2299" fill="white"/>
<path d="M158 44.6701C157.525 44.6683 157.05 44.6316 156.58 44.5601C156.448 44.538 156.33 44.4648 156.251 44.3563C156.172 44.2477 156.14 44.1126 156.16 43.9801C156.17 43.9154 156.192 43.8533 156.226 43.7974C156.26 43.7415 156.305 43.6931 156.358 43.6549C156.412 43.6166 156.472 43.5895 156.536 43.5749C156.599 43.5604 156.666 43.5587 156.73 43.5701C158.945 43.8962 161.2 43.3317 163 42.0001C164.225 41.0254 165.179 39.7515 165.769 38.3014C166.359 36.8512 166.566 35.2735 166.37 33.7201C166.33 32.5728 166.025 31.4503 165.48 30.4401C165.222 29.972 164.868 29.5641 164.44 29.2434C164.012 28.9228 163.522 28.6967 163 28.5801C161.76 28.3601 160.52 28.9301 159.14 29.6401C158.192 30.1014 157.45 30.9003 157.06 31.8801C156.85 32.2601 156.62 32.6901 156.31 33.1601C156.289 33.2007 156.262 33.2378 156.23 33.2701C156.15 33.3696 156.033 33.4337 155.906 33.4486C155.779 33.4636 155.651 33.4282 155.55 33.3501C155.444 33.2756 155.372 33.1623 155.35 33.0349C155.327 32.9075 155.356 32.7764 155.43 32.6701V32.6701C155.43 32.6701 155.43 32.5401 155.5 32.4701C155.559 32.2891 155.643 32.1174 155.75 31.9601C155.802 31.8995 155.867 31.8516 155.94 31.8201L156.13 31.4601C156.624 30.3001 157.518 29.3561 158.65 28.8001C159.83 28.1901 161.46 27.3501 163.13 27.6401C163.809 27.7749 164.45 28.0558 165.01 28.4633C165.569 28.8708 166.034 29.3952 166.37 30.0001C166.983 31.1439 167.325 32.4132 167.37 33.7101C167.581 35.4317 167.344 37.1787 166.682 38.7817C166.02 40.3848 164.955 41.7897 163.59 42.8601C161.966 44.0421 160.008 44.6761 158 44.6701V44.6701Z" fill="#231F20"/>
<path d="M138.84 69.9998C140.809 69.8582 142.714 69.2375 144.389 68.1918C146.064 67.1461 147.458 65.7071 148.45 63.9998C151.98 58.1098 150.57 54.3398 150.57 54.3398C150.57 54.3398 145.81 60.4098 138.32 60.8998L138.84 69.9998Z" fill="#231F20"/>
<path d="M138.84 70.49C138.713 70.4901 138.592 70.4412 138.5 70.3536C138.409 70.266 138.355 70.1465 138.35 70.02L137.82 61.02C137.816 60.9543 137.825 60.8885 137.846 60.8262C137.868 60.764 137.901 60.7066 137.945 60.6574C137.989 60.6082 138.042 60.568 138.101 60.5393C138.16 60.5106 138.224 60.4938 138.29 60.49C145.46 60.03 150.13 54.19 150.18 54.13C150.234 54.0593 150.307 54.0044 150.389 53.971C150.472 53.9376 150.562 53.9269 150.65 53.94C150.737 53.9549 150.819 53.9923 150.887 54.0484C150.956 54.1045 151.008 54.1774 151.04 54.26C151.1 54.42 152.49 58.32 148.87 64.35C147.84 66.1236 146.388 67.6161 144.644 68.6957C142.9 69.7752 140.917 70.4087 138.87 70.54L138.84 70.49ZM138.84 61.39L139.31 69.46C141.096 69.2399 142.808 68.6135 144.314 67.6289C145.821 66.6443 147.082 65.3276 148 63.78C150.39 59.78 150.45 56.86 150.27 55.46C147.276 58.7191 143.229 60.8188 138.84 61.39V61.39Z" fill="#231F20"/>
<path d="M137 33.5698C137 33.5698 133.25 43.4498 134.95 44.6298C136.65 45.8098 140.24 43.9298 140.24 43.9298" fill="white"/>
<path d="M136.43 45.5198C135.804 45.5485 135.185 45.3806 134.66 45.0398C132.78 43.7398 135.66 35.7998 136.52 33.3898C136.567 33.267 136.661 33.1677 136.78 33.1134C136.9 33.0591 137.037 33.0542 137.16 33.0998C137.222 33.1231 137.279 33.1584 137.327 33.2038C137.375 33.2492 137.414 33.3037 137.441 33.3642C137.468 33.4246 137.483 33.4899 137.484 33.5561C137.486 33.6223 137.474 33.6881 137.45 33.7498C135.71 38.3398 134.45 43.6498 135.23 44.2098C136.42 45.0298 139.08 43.9698 140 43.4898C140.118 43.4293 140.256 43.4173 140.383 43.4566C140.51 43.4958 140.616 43.5831 140.68 43.6998C140.739 43.8179 140.749 43.9546 140.708 44.0802C140.667 44.2057 140.578 44.3099 140.46 44.3698C139.214 45.0369 137.84 45.429 136.43 45.5198V45.5198Z" fill="#231F20"/>
<path d="M144.376 33.3202C145.138 33.0739 145.474 32.0009 145.125 30.9236C144.777 29.8463 143.877 29.1726 143.115 29.4188C142.353 29.6651 142.018 30.7381 142.366 31.8154C142.714 32.8927 143.614 33.5664 144.376 33.3202Z" fill="#231F20"/>
<path d="M130.386 36.5916C131.187 36.5807 131.823 35.6541 131.808 34.5221C131.792 33.39 131.131 32.4811 130.33 32.492C129.529 32.5029 128.893 33.4295 128.908 34.5615C128.923 35.6936 129.585 36.6025 130.386 36.5916Z" fill="#231F20"/>
<path d="M138.19 57.3202C137.23 57.3452 136.285 57.069 135.49 56.5302C132.34 54.2302 132.11 49.1502 132.1 48.9302C132.097 48.812 132.136 48.6965 132.209 48.6034C132.282 48.5104 132.385 48.4456 132.5 48.4202C145.44 45.5902 145.58 45.6902 145.81 45.8602C145.867 45.9033 145.915 45.9573 145.951 46.0191C145.987 46.0809 146.011 46.1492 146.02 46.2202C146.22 48.2363 145.943 50.2712 145.21 52.1602C144.769 53.3181 144.071 54.3609 143.169 55.2097C142.266 56.0586 141.183 56.6913 140 57.0602C139.412 57.2303 138.802 57.3178 138.19 57.3202V57.3202ZM133.14 49.3202C133.26 50.5302 133.8 54.0702 136.06 55.7102C136.598 56.0405 137.203 56.2476 137.83 56.3168C138.458 56.3859 139.093 56.3154 139.69 56.1102C140.732 55.7857 141.688 55.2293 142.484 54.4829C143.281 53.7364 143.898 52.8193 144.29 51.8002C144.909 50.2099 145.168 48.5025 145.05 46.8002C143.33 47.1102 137.26 48.4102 133.14 49.3102V49.3202Z" fill="#231F20"/>
<path d="M144.75 52.0002C142.83 56.6402 138.02 57.7502 135.75 56.1402C136.26 54.3702 137.19 52.5302 138.92 51.8602C140.818 51.2126 142.885 51.2623 144.75 52.0002V52.0002Z" fill="#231F20"/>
<path d="M138.19 57.3101C137.231 57.3368 136.287 57.0642 135.49 56.5301C135.407 56.4701 135.346 56.3857 135.314 56.2889C135.281 56.1921 135.28 56.0877 135.31 55.9901C135.99 53.5501 137.16 51.9901 138.77 51.3801C140.772 50.6998 142.949 50.7458 144.92 51.5101C144.984 51.5335 145.042 51.5694 145.092 51.6158C145.142 51.6622 145.182 51.718 145.21 51.7801C145.26 51.9054 145.26 52.0448 145.21 52.1701C144.767 53.3255 144.068 54.3656 143.166 55.2124C142.263 56.0593 141.181 56.691 140 57.0601C139.411 57.2265 138.802 57.3106 138.19 57.3101V57.3101ZM136.37 55.9001C137.41 56.3914 138.599 56.463 139.69 56.1001C140.648 55.8072 141.533 55.3156 142.287 54.6574C143.042 53.9991 143.65 53.1891 144.07 52.2801C142.466 51.7471 140.734 51.7471 139.13 52.2801C137.9 52.7801 137 54.0001 136.37 55.9001Z" fill="#231F20"/>
<path d="M121.29 41.5501C120.606 41.5499 119.942 41.3157 119.409 40.8865C118.876 40.4572 118.506 39.8587 118.36 39.1901L117.31 34.4201C117.141 33.643 117.287 32.8305 117.716 32.161C118.145 31.4916 118.823 31.0201 119.6 30.8501L130.75 28.4001C131.135 28.3147 131.534 28.3063 131.923 28.3752C132.311 28.4442 132.683 28.5892 133.015 28.8019C133.348 29.0146 133.635 29.291 133.861 29.615C134.086 29.939 134.246 30.3044 134.33 30.6901L135.33 35.4601C135.492 36.2272 135.347 37.0271 134.926 37.6887C134.506 38.3503 133.843 38.821 133.08 39.0001V39.0001L121.93 41.4401C121.722 41.5016 121.507 41.5385 121.29 41.5501V41.5501ZM131.4 29.3701C131.257 29.3553 131.113 29.3553 130.97 29.3701L119.83 31.8101C119.321 31.9274 118.879 32.2388 118.597 32.6778C118.315 33.1169 118.215 33.6488 118.32 34.1601L119.37 39.0001C119.489 39.5047 119.8 39.9432 120.237 40.223C120.673 40.5029 121.202 40.6022 121.71 40.5001L132.86 38.0001C133.365 37.8806 133.803 37.5698 134.083 37.1333C134.363 36.6967 134.462 36.1685 134.36 35.6601L133.36 30.8901C133.259 30.4542 133.016 30.0647 132.668 29.7837C132.319 29.5027 131.887 29.3465 131.44 29.3401L131.4 29.3701Z" fill="#231F20"/>
<path d="M141.16 37.2C140.585 37.1985 140.023 37.0319 139.54 36.72C138.872 36.2914 138.401 35.6153 138.23 34.84L137.23 30.07C137.058 29.2934 137.202 28.4805 137.63 27.81C137.842 27.4762 138.119 27.1878 138.443 26.9612C138.768 26.7347 139.133 26.5745 139.52 26.49L150.66 24.05C151.045 23.9646 151.444 23.9562 151.833 24.0251C152.221 24.0941 152.593 24.2391 152.925 24.4518C153.258 24.6646 153.545 24.9409 153.771 25.2649C153.996 25.5889 154.156 25.9543 154.24 26.34L155.24 31.11C155.414 31.8815 155.276 32.6905 154.857 33.3609C154.437 34.0313 153.77 34.509 153 34.69L141.86 37.13C141.629 37.1756 141.395 37.199 141.16 37.2ZM151.27 25C151.125 25.0018 150.981 25.0186 150.84 25.05L139.7 27.5C139.446 27.5533 139.206 27.6568 138.993 27.8045C138.78 27.9522 138.599 28.1411 138.46 28.36C138.178 28.8021 138.081 29.3372 138.19 29.85L139.24 34.62C139.359 35.1246 139.67 35.5631 140.107 35.8429C140.543 36.1228 141.072 36.2221 141.58 36.12L152.73 33.68C153.24 33.5663 153.685 33.2576 153.97 32.82C154.248 32.3765 154.342 31.8416 154.23 31.33L153.23 26.56C153.13 26.1157 152.881 25.7188 152.524 25.4351C152.168 25.1515 151.726 24.998 151.27 25Z" fill="#231F20"/>
<path d="M133.82 31.3201C133.728 31.322 133.638 31.2977 133.56 31.2501C133.443 31.1811 133.358 31.0694 133.323 30.9387C133.287 30.8079 133.304 30.6685 133.37 30.5501C133.84 29.7401 135.37 28.4701 137.88 29.4801C138.013 29.5305 138.12 29.6315 138.178 29.7609C138.236 29.8903 138.24 30.0375 138.19 30.1701C138.14 30.3027 138.039 30.4098 137.909 30.468C137.78 30.5261 137.633 30.5305 137.5 30.4801C135.26 29.5801 134.36 30.9501 134.27 31.1101C134.218 31.1792 134.15 31.2344 134.071 31.271C133.993 31.3076 133.906 31.3245 133.82 31.3201V31.3201Z" fill="#231F20"/>
<path d="M34.2 164.44H239.8L272.79 224.69H1.20999L34.2 164.44Z" fill="white"/>
<path d="M272.79 225.19H1.21C1.12389 225.19 1.0393 225.167 0.964111 225.125C0.888922 225.083 0.82558 225.023 0.779995 224.95C0.73798 224.873 0.715958 224.787 0.715958 224.7C0.715958 224.613 0.73798 224.527 0.779995 224.45L33.78 164.2C33.8223 164.12 33.8858 164.054 33.9634 164.008C34.041 163.962 34.1298 163.939 34.22 163.94H239.79C239.88 163.939 239.969 163.962 240.047 164.008C240.124 164.054 240.188 164.12 240.23 164.2L273.23 224.45C273.272 224.527 273.294 224.613 273.294 224.7C273.294 224.787 273.272 224.873 273.23 224.95C273.184 225.025 273.119 225.086 273.041 225.128C272.964 225.17 272.878 225.191 272.79 225.19ZM2.05999 224.19H271.94L239.5 164.94H34.5L2.05999 224.19Z" fill="#D1D3D4"/>
<path d="M37.39 125.57L37.83 123.67C38.83 121.77 39.94 120.49 42.52 120.49H140.39C141.573 120.492 142.724 120.877 143.67 121.587C144.616 122.297 145.308 123.294 145.64 124.43L161.55 179.09C161.961 180.262 161.909 181.546 161.405 182.682C160.902 183.817 159.984 184.717 158.84 185.2L157.11 185.61L37.39 125.57Z" fill="white"/>
<path d="M157.11 186.11C157.034 186.107 156.959 186.09 156.89 186.06L37.17 126C37.069 125.95 36.988 125.868 36.9407 125.766C36.8934 125.664 36.8825 125.549 36.91 125.44L37.35 123.54C37.3456 123.496 37.3456 123.453 37.35 123.41C38.35 121.6 39.5 119.97 42.48 119.97H140.35C141.641 119.975 142.895 120.396 143.927 121.171C144.959 121.945 145.714 123.032 146.08 124.27L162 179C162.447 180.291 162.386 181.705 161.829 182.953C161.271 184.201 160.26 185.19 159 185.72L157.21 186.15L157.11 186.11ZM38 125.3L157.21 185.08L158.76 184.72C161.17 183.78 161.67 181.21 161.1 179.23L145.19 124.57C144.885 123.54 144.256 122.635 143.397 121.991C142.538 121.346 141.494 120.995 140.42 120.99H42.52C40.31 120.99 39.36 121.99 38.3 123.85L38 125.3Z" fill="#231F20"/>
<path d="M157.11 185.61H57.24C56.5614 185.602 55.9033 185.377 55.363 184.966C54.8227 184.555 54.4289 183.982 54.24 183.33L37.43 125.57C37.3666 125.348 37.3554 125.115 37.3974 124.888C37.4394 124.662 37.5334 124.448 37.672 124.264C37.8106 124.08 37.99 123.93 38.1961 123.827C38.4023 123.724 38.6295 123.67 38.86 123.67H141.4L158.77 183.4C158.847 183.657 158.862 183.929 158.814 184.194C158.767 184.458 158.658 184.708 158.497 184.923C158.335 185.138 158.126 185.312 157.885 185.431C157.644 185.55 157.379 185.612 157.11 185.61V185.61Z" fill="#231F20"/>
<path d="M157.11 186.11H57.24C56.4476 186.106 55.6774 185.847 55.0435 185.372C54.4095 184.896 53.9455 184.229 53.72 183.47L36.91 125.71C36.8288 125.414 36.8166 125.104 36.8742 124.804C36.9318 124.503 37.0577 124.219 37.2423 123.975C37.4268 123.73 37.6651 123.531 37.9386 123.394C38.2122 123.256 38.5137 123.183 38.82 123.18H141.4C141.506 123.178 141.61 123.211 141.695 123.275C141.78 123.338 141.841 123.428 141.87 123.53L159.25 183.26C159.346 183.592 159.364 183.942 159.301 184.282C159.239 184.622 159.099 184.942 158.891 185.219C158.684 185.495 158.415 185.72 158.106 185.874C157.796 186.029 157.456 186.109 157.11 186.11V186.11ZM38.82 124.17C38.6678 124.172 38.5182 124.209 38.3825 124.278C38.2469 124.347 38.1287 124.446 38.0371 124.568C37.9455 124.689 37.8828 124.83 37.8538 124.979C37.8249 125.129 37.8304 125.283 37.87 125.43L54.67 183.19C54.8354 183.743 55.1746 184.229 55.6375 184.575C56.1003 184.921 56.6622 185.108 57.24 185.11H157.11C157.303 185.111 157.494 185.067 157.668 184.982C157.841 184.897 157.993 184.773 158.11 184.62C158.223 184.467 158.299 184.29 158.332 184.102C158.365 183.915 158.354 183.722 158.3 183.54L141 124.17H38.82Z" fill="#231F20"/>
<path d="M140.36 161L134.29 186.81C133.969 188.191 133.189 189.423 132.077 190.304C130.966 191.185 129.588 191.663 128.17 191.66H65C64.0518 191.66 63.116 191.445 62.2625 191.032C61.409 190.619 60.66 190.018 60.0714 189.274C59.4828 188.531 59.07 187.664 58.8636 186.739C58.6573 185.813 58.6629 184.853 58.88 183.93L64.23 161H59L53.88 182.75C53.4935 184.425 53.4897 186.165 53.8689 187.842C54.2482 189.518 55.0006 191.088 56.0702 192.433C57.1398 193.778 58.4991 194.865 60.0469 195.613C61.5947 196.36 63.2912 196.749 65.01 196.75H128.22C130.781 196.748 133.267 195.884 135.278 194.297C137.288 192.709 138.705 190.491 139.3 188L145.64 161H140.36Z" fill="white"/>
<path d="M128.17 197.32H65C63.2015 197.32 61.4264 196.912 59.8075 196.129C58.1885 195.346 56.7676 194.207 55.6511 192.797C54.5345 191.387 53.7511 189.743 53.3596 187.987C52.968 186.232 52.9784 184.411 53.39 182.66L58.5 160.9C58.527 160.791 58.5901 160.694 58.679 160.625C58.7679 160.556 58.8775 160.519 58.99 160.52H64.27C64.345 160.521 64.4188 160.539 64.4862 160.572C64.5536 160.604 64.613 160.652 64.66 160.71C64.7059 160.769 64.7379 160.837 64.7535 160.91C64.7691 160.982 64.7679 161.058 64.75 161.13L59.36 184.06C59.1613 184.91 59.1571 185.795 59.3478 186.647C59.5385 187.499 59.9191 188.297 60.4614 188.981C61.0036 189.666 61.6933 190.219 62.4792 190.6C63.2651 190.981 64.1268 191.179 65 191.18H128.21C129.517 191.182 130.786 190.742 131.811 189.93C132.835 189.118 133.554 187.983 133.85 186.71L139.92 160.9C139.945 160.792 140.006 160.695 140.093 160.626C140.181 160.557 140.289 160.519 140.4 160.52H145.68C145.755 160.522 145.828 160.539 145.895 160.572C145.962 160.605 146.021 160.652 146.068 160.711C146.114 160.769 146.148 160.836 146.165 160.909C146.183 160.981 146.185 161.057 146.17 161.13L139.82 188.13C139.209 190.757 137.723 193.097 135.606 194.768C133.489 196.438 130.867 197.338 128.17 197.32V197.32ZM59.34 161.52L54.34 182.89C53.9607 184.496 53.9503 186.167 54.3096 187.778C54.6689 189.388 55.3886 190.897 56.4145 192.189C57.4404 193.482 58.7459 194.525 60.2329 195.24C61.72 195.956 63.3498 196.325 65 196.32H128.21C130.676 196.327 133.071 195.497 135.004 193.966C136.937 192.434 138.293 190.292 138.85 187.89L145.05 161.52H140.8L134.8 186.94C134.457 188.434 133.616 189.767 132.414 190.72C131.213 191.672 129.723 192.187 128.19 192.18H65C63.9755 192.18 62.9643 191.949 62.042 191.503C61.1198 191.057 60.3104 190.408 59.6746 189.604C59.0387 188.801 58.5928 187.865 58.3704 186.864C58.1479 185.864 58.1546 184.827 58.39 183.83L63.63 161.52H59.34Z" fill="#231F20"/>
<path d="M221.82 108.37C221.82 108.37 230.76 148.07 223.44 158.21C216.12 168.35 165 166.75 165 166.75C165 166.75 156.71 176.7 149.51 176.04C142.31 175.38 146.51 161.76 154.98 156.09L153.81 151.36L198.88 144.13L192.88 115.6" fill="white"/>
<path d="M150.17 176.57C149.923 176.57 149.673 176.57 149.42 176.57C148.488 176.524 147.598 176.17 146.889 175.564C146.18 174.957 145.691 174.133 145.5 173.22C144.37 168.79 147.99 160.34 154.36 155.9L153.28 151.51C153.262 151.445 153.259 151.376 153.269 151.309C153.279 151.242 153.304 151.177 153.34 151.12C153.378 151.061 153.428 151.011 153.486 150.973C153.545 150.935 153.611 150.91 153.68 150.9L198.23 143.75L192.33 115.75C192.317 115.686 192.317 115.62 192.329 115.555C192.341 115.491 192.367 115.429 192.403 115.374C192.439 115.32 192.486 115.272 192.54 115.236C192.595 115.199 192.656 115.173 192.72 115.16C192.784 115.146 192.85 115.144 192.914 115.155C192.979 115.166 193.04 115.19 193.095 115.226C193.15 115.261 193.197 115.307 193.234 115.361C193.271 115.415 193.297 115.476 193.31 115.54L199.31 144.07C199.325 144.137 199.325 144.206 199.311 144.274C199.298 144.341 199.27 144.404 199.23 144.46C199.192 144.516 199.144 144.563 199.087 144.6C199.03 144.636 198.966 144.66 198.9 144.67L154.37 151.82L155.37 156.02C155.396 156.118 155.39 156.222 155.354 156.317C155.319 156.412 155.254 156.493 155.17 156.55C149.05 160.65 145.38 168.9 146.43 173C146.565 173.707 146.934 174.347 147.479 174.818C148.024 175.288 148.711 175.56 149.43 175.59C156.28 176.23 164.43 166.59 164.49 166.48C164.539 166.422 164.6 166.375 164.669 166.344C164.739 166.313 164.814 166.298 164.89 166.3C165.4 166.3 215.89 167.77 222.95 157.96C230.01 148.15 221.35 108.96 221.26 108.53C221.246 108.464 221.244 108.397 221.256 108.33C221.268 108.264 221.292 108.201 221.329 108.144C221.365 108.088 221.412 108.039 221.467 108C221.522 107.962 221.584 107.935 221.65 107.92C221.716 107.906 221.784 107.904 221.85 107.916C221.916 107.928 221.979 107.953 222.036 107.989C222.092 108.025 222.141 108.072 222.18 108.127C222.218 108.182 222.246 108.244 222.26 108.31C222.63 109.94 231.16 148.31 223.79 158.55C216.59 168.55 169.4 167.43 165.13 167.3C164 168.62 156.87 176.57 150.17 176.57Z" fill="#231F20"/>
<path d="M168.19 88.71C168.113 88.7088 168.037 88.6881 167.97 88.65C167.909 88.6221 167.854 88.5822 167.808 88.5326C167.763 88.4829 167.728 88.4246 167.705 88.3611C167.683 88.2976 167.673 88.2302 167.678 88.163C167.682 88.0958 167.7 88.0301 167.73 87.97C174.99 72.97 193.63 62.88 193.82 62.78C193.879 62.7471 193.944 62.7264 194.011 62.7192C194.078 62.712 194.145 62.7184 194.21 62.738C194.274 62.7576 194.334 62.79 194.386 62.8333C194.437 62.8766 194.48 62.9299 194.51 62.99C194.543 63.0495 194.564 63.1151 194.571 63.1828C194.579 63.2505 194.572 63.319 194.553 63.3843C194.533 63.4495 194.501 63.5102 194.457 63.5627C194.414 63.6152 194.36 63.6585 194.3 63.69C194.12 63.79 175.77 73.69 168.66 88.42C168.616 88.5068 168.549 88.5799 168.466 88.631C168.383 88.6822 168.287 88.7095 168.19 88.71V88.71Z" fill="#231F20"/>
<path d="M137.37 88.0002C137.297 88.0153 137.223 88.0153 137.15 88.0002C119.73 80.0002 117.62 62.4202 117.6 62.2502C117.586 62.1137 117.626 61.9772 117.713 61.8705C117.799 61.7637 117.924 61.6953 118.06 61.6802C118.127 61.6718 118.195 61.6769 118.26 61.695C118.325 61.7132 118.386 61.7441 118.439 61.786C118.492 61.8278 118.536 61.8798 118.569 61.9389C118.602 61.998 118.623 62.063 118.63 62.1302C118.63 62.3002 120.71 79.3102 137.63 86.9702C137.754 87.027 137.85 87.13 137.899 87.2571C137.947 87.3842 137.944 87.5254 137.89 87.6502C137.852 87.7562 137.781 87.8474 137.687 87.9103C137.594 87.9732 137.483 88.0047 137.37 88.0002V88.0002Z" fill="#231F20"/>
<path d="M58 110.67C57.8913 110.639 57.7957 110.573 57.7277 110.483C57.6596 110.393 57.6228 110.283 57.6228 110.17C57.6228 110.057 57.6596 109.947 57.7277 109.857C57.7957 109.766 57.8913 109.701 58 109.67C65.54 109.44 69.2 105.18 69.24 105.14C69.2826 105.088 69.335 105.045 69.3943 105.013C69.4535 104.981 69.5185 104.962 69.5854 104.955C69.6523 104.949 69.7199 104.955 69.7842 104.975C69.8485 104.995 69.9082 105.027 69.96 105.07C70.0658 105.158 70.1325 105.284 70.1456 105.42C70.1587 105.557 70.1171 105.694 70.03 105.8C69.87 105.99 66.03 110.46 58.03 110.7L58 110.67Z" fill="#231F20"/>
<path d="M192.82 116.11C192.705 116.111 192.593 116.073 192.502 116.002C192.411 115.931 192.347 115.832 192.32 115.72C192.32 115.54 187.61 97.11 186.96 86.06C186.956 85.993 186.965 85.9259 186.987 85.8624C187.009 85.799 187.043 85.7405 187.088 85.6903C187.132 85.6402 187.187 85.5993 187.247 85.5701C187.307 85.5408 187.373 85.5238 187.44 85.52C187.576 85.5117 187.71 85.5574 187.813 85.6473C187.916 85.7371 187.98 85.8638 187.99 86C188.64 96.95 193.28 115.28 193.32 115.47C193.354 115.603 193.334 115.743 193.264 115.861C193.195 115.979 193.082 116.065 192.95 116.1L192.82 116.11Z" fill="#231F20"/>
<path d="M112.22 119.4C112.152 119.396 112.086 119.379 112.024 119.349C111.963 119.319 111.909 119.278 111.864 119.226C111.819 119.175 111.785 119.115 111.764 119.051C111.743 118.986 111.735 118.918 111.74 118.85L114.22 80.0002C114.224 79.9323 114.241 79.8658 114.271 79.8047C114.301 79.7436 114.343 79.689 114.394 79.6443C114.445 79.5996 114.505 79.5656 114.569 79.5442C114.634 79.5229 114.702 79.5147 114.77 79.5202C114.837 79.5227 114.904 79.5388 114.965 79.5676C115.026 79.5964 115.08 79.6372 115.125 79.6877C115.17 79.7381 115.204 79.7972 115.226 79.8612C115.247 79.9252 115.255 79.9929 115.25 80.0602L112.73 118.91C112.725 119.042 112.669 119.167 112.574 119.258C112.479 119.349 112.352 119.4 112.22 119.4Z" fill="#231F20"/>
<path d="M200.76 97.67C200.667 97.6711 200.576 97.6464 200.497 97.5988C200.417 97.5511 200.353 97.4823 200.31 97.4L195.47 88.4C195.416 88.2686 195.416 88.1213 195.47 87.99C195.517 87.8556 195.613 87.7445 195.74 87.68L210.74 80.59C210.801 80.5595 210.867 80.5416 210.935 80.5372C211.003 80.5328 211.071 80.5421 211.136 80.5644C211.2 80.5868 211.259 80.6218 211.31 80.6674C211.36 80.713 211.401 80.7683 211.43 80.83C211.489 80.9534 211.496 81.0951 211.452 81.2242C211.407 81.3534 211.313 81.4596 211.19 81.52L196.65 88.38L201.03 96.5L215.76 92C215.826 91.9803 215.895 91.9737 215.963 91.9806C216.031 91.9876 216.097 92.0079 216.157 92.0404C216.218 92.0729 216.271 92.1169 216.315 92.17C216.358 92.2232 216.39 92.2843 216.41 92.35C216.43 92.4156 216.436 92.4845 216.429 92.5527C216.422 92.6209 216.402 92.6871 216.37 92.7475C216.337 92.8078 216.293 92.8612 216.24 92.9045C216.187 92.9478 216.126 92.9803 216.06 93L200.91 97.68L200.76 97.67Z" fill="#231F20"/>
<path d="M213.75 211.78C227.386 211.78 238.44 208.453 238.44 204.35C238.44 200.246 227.386 196.92 213.75 196.92C200.114 196.92 189.06 200.246 189.06 204.35C189.06 208.453 200.114 211.78 213.75 211.78Z" fill="white"/>
<path d="M213.75 212.28C199.63 212.28 188.56 208.8 188.56 204.35C188.56 199.9 199.63 196.42 213.75 196.42C227.87 196.42 238.94 199.9 238.94 204.35C238.94 208.8 227.87 212.28 213.75 212.28ZM213.75 197.42C199.28 197.42 189.56 201 189.56 204.35C189.56 207.7 199.28 211.28 213.75 211.28C228.22 211.28 237.94 207.7 237.94 204.35C237.94 201 228.22 197.42 213.75 197.42V197.42Z" fill="#D1D3D4"/>
<path d="M195.14 183.13L194.55 183.24C192.765 183.506 191.142 184.421 189.99 185.81C189.344 186.797 188.988 187.944 188.961 189.123C188.935 190.302 189.239 191.465 189.84 192.48C192.46 197.2 198.84 198.48 203.76 198.97C204.456 199.083 205.169 199.028 205.84 198.81C206.171 198.697 206.459 198.484 206.665 198.202C206.87 197.919 206.984 197.58 206.99 197.23C206.948 196.942 206.834 196.67 206.659 196.438C206.485 196.205 206.254 196.02 205.99 195.9C205.475 195.661 204.924 195.506 204.36 195.44C201.3 194.94 198.08 194.57 195.28 193.16C193.65 192.33 191.37 190.44 192.56 188.4C192.977 187.754 193.575 187.246 194.28 186.94C197.09 185.6 199.76 186.62 202.53 187.44C202.731 187.514 202.946 187.544 203.16 187.53C203.425 187.457 203.654 187.289 203.803 187.059C203.952 186.829 204.012 186.551 203.97 186.28C203.88 185.07 202.67 184.28 201.53 183.83C199.494 183.057 197.295 182.816 195.14 183.13V183.13Z" fill="white"/>
<path d="M204.59 199.52C204.299 199.519 204.009 199.502 203.72 199.47C196.21 198.76 191.53 196.56 189.4 192.72C188.751 191.622 188.425 190.363 188.459 189.088C188.492 187.812 188.884 186.572 189.59 185.51C190.817 184.025 192.546 183.042 194.45 182.75L195.07 182.64C197.322 182.304 199.623 182.555 201.75 183.37C202.75 183.74 204.38 184.61 204.51 186.24C204.56 186.639 204.462 187.042 204.233 187.372C204.004 187.703 203.661 187.937 203.27 188.03C202.985 188.049 202.7 188.011 202.43 187.92L201.71 187.7C199.25 186.95 196.93 186.25 194.54 187.39C193.921 187.652 193.394 188.095 193.03 188.66C192.9 188.866 192.815 189.098 192.783 189.339C192.75 189.581 192.769 189.827 192.84 190.06C193.389 191.241 194.348 192.183 195.54 192.71C198.023 193.791 200.657 194.485 203.35 194.77L204.48 194.95C205.101 195.018 205.706 195.191 206.27 195.46C206.672 195.611 207.014 195.887 207.247 196.248C207.48 196.608 207.59 197.034 207.562 197.463C207.534 197.891 207.369 198.299 207.091 198.626C206.814 198.953 206.438 199.183 206.02 199.28C205.562 199.446 205.077 199.528 204.59 199.52V199.52ZM195.22 183.63L194.65 183.73C192.99 183.977 191.476 184.819 190.39 186.1C189.8 187.011 189.477 188.069 189.457 189.154C189.438 190.239 189.723 191.308 190.28 192.24C192.23 195.76 196.66 197.8 203.81 198.47C204.424 198.571 205.054 198.53 205.65 198.35C205.882 198.271 206.086 198.126 206.235 197.932C206.385 197.738 206.473 197.504 206.49 197.26C206.458 197.061 206.377 196.873 206.255 196.713C206.133 196.552 205.973 196.424 205.79 196.34C205.325 196.127 204.828 195.992 204.32 195.94L203.19 195.76C200.395 195.462 197.662 194.734 195.09 193.6C193.65 192.958 192.504 191.798 191.88 190.35C191.77 189.983 191.74 189.598 191.789 189.219C191.839 188.84 191.969 188.475 192.17 188.15C192.633 187.412 193.31 186.833 194.11 186.49C196.85 185.18 199.47 185.97 202 186.74L202.72 186.96C202.854 187.009 202.997 187.033 203.14 187.03C203.38 187.03 203.53 186.62 203.51 186.32C203.43 185.2 202 184.54 201.39 184.32C199.425 183.569 197.3 183.339 195.22 183.65V183.63Z" fill="#231F20"/>
<path d="M197.45 178.07C197.45 178.07 202.07 201.13 202.45 202.52C202.83 203.91 213.75 209.62 222.45 204.01L230.06 180.44L197.45 178.07Z" fill="white"/>
<path d="M213.94 206.94C211.326 206.919 208.738 206.424 206.3 205.48C204.38 204.74 202.2 203.54 201.96 202.65C201.59 201.26 197.15 179.12 196.96 178.17C196.942 178.095 196.942 178.017 196.961 177.942C196.979 177.867 197.015 177.798 197.066 177.74C197.117 177.682 197.182 177.637 197.254 177.609C197.326 177.582 197.403 177.572 197.48 177.58L230.09 180C230.166 180.004 230.24 180.025 230.307 180.062C230.373 180.1 230.43 180.152 230.473 180.215C230.516 180.278 230.543 180.35 230.553 180.426C230.563 180.501 230.555 180.578 230.53 180.65L222.92 204.22C222.883 204.329 222.808 204.421 222.71 204.48C220.089 206.138 217.041 206.994 213.94 206.94V206.94ZM198.07 178.62C198.82 182.37 202.6 201.16 202.93 202.39C203.07 202.72 204.87 204.06 208.06 205.03C211.06 205.94 216.8 206.97 222.06 203.69L229.42 180.9L198.07 178.62Z" fill="#231F20"/>
<path d="M230.138 179.415C230.299 175.508 223.115 172.041 214.092 171.67C205.07 171.3 197.626 174.167 197.466 178.074C197.306 181.981 204.49 185.448 213.512 185.818C222.534 186.189 229.978 183.322 230.138 179.415Z" fill="#231F20"/>
<path d="M215.07 186.35C214.54 186.35 214.01 186.35 213.48 186.35C204.03 185.97 196.77 182.35 196.95 178.09C197.13 173.83 204.66 170.83 214.1 171.22C223.54 171.61 230.8 175.22 230.62 179.48C230.54 181.58 228.62 183.48 225.31 184.72C222.022 185.874 218.554 186.426 215.07 186.35V186.35ZM212.56 172.14C204.63 172.14 198.08 174.74 197.94 178.14C197.8 181.7 204.94 185.01 213.52 185.36C217.415 185.587 221.317 185.04 225 183.75C227.9 182.64 229.6 181.05 229.67 179.4C229.82 175.83 222.67 172.52 214.1 172.17L212.56 172.14Z" fill="#231F20"/>
<path d="M174.67 114H121.76C121.627 114 121.5 113.947 121.406 113.853C121.313 113.76 121.26 113.632 121.26 113.5V97.8799C121.263 97.7481 121.316 97.6224 121.409 97.5292C121.502 97.4359 121.628 97.3824 121.76 97.3799H174.67C174.803 97.3799 174.93 97.4326 175.024 97.5263C175.117 97.6201 175.17 97.7473 175.17 97.8799V113.53C175.162 113.657 175.106 113.777 175.013 113.864C174.92 113.952 174.798 114 174.67 114V114ZM122.26 113H174.17V98.3799H122.26V113Z" fill="white"/>
<path d="M272.78 224.69H1.20999V235.16H272.78V224.69Z" fill="white"/>
<path d="M272.79 235.66H1.20999C1.07738 235.66 0.950206 235.607 0.856438 235.513C0.762669 235.42 0.709991 235.293 0.709991 235.16V224.69C0.712552 224.558 0.766053 224.432 0.859272 224.339C0.952491 224.246 1.07818 224.193 1.20999 224.19H272.79C272.922 224.193 273.047 224.246 273.141 224.339C273.234 224.432 273.287 224.558 273.29 224.69V235.16C273.29 235.293 273.237 235.42 273.144 235.513C273.05 235.607 272.923 235.66 272.79 235.66ZM1.70999 234.66H272.29V225.19H1.70999V234.66Z" fill="#D1D3D4"/>
<path d="M230.05 126.91C229.918 126.905 229.794 126.849 229.702 126.754C229.611 126.659 229.56 126.532 229.56 126.4C229.56 125.25 230.29 98.14 233.28 88.75C236.27 79.36 241.88 75.45 242.11 75.3C242.22 75.2257 242.355 75.1982 242.485 75.2235C242.616 75.2489 242.731 75.3249 242.805 75.435C242.879 75.545 242.907 75.6801 242.881 75.8104C242.856 75.9408 242.78 76.0557 242.67 76.13C242.61 76.13 237.14 79.92 234.23 89.05C231.32 98.18 230.57 126.14 230.56 126.42C230.559 126.486 230.544 126.55 230.518 126.611C230.492 126.671 230.454 126.725 230.407 126.771C230.359 126.816 230.303 126.852 230.242 126.876C230.181 126.9 230.116 126.911 230.05 126.91Z" fill="white"/>
</svg>
