<svg width="18" height="18" viewBox="0 0 18 18" fill="none" xmlns="http://www.w3.org/2000/svg">
<path d="M16.354 17.985H1.63C0.729843 17.9839 0.000550892 17.2542 0 16.354V1.63C0.00110198 0.730233 0.730233 0.00110198 1.63 0H16.353C17.2531 0.00109901 17.9828 0.729909 17.985 1.63V16.354C17.9839 17.2543 17.2543 17.9839 16.354 17.985ZM3.665 6.662L3.277 8.092H4.555L3.729 11.458C3.6683 11.7243 3.6348 11.996 3.629 12.269C3.58252 12.7084 3.73977 13.1449 4.05578 13.4537C4.3718 13.7625 4.8118 13.9096 5.25 13.853C6.17976 13.8127 7.01494 13.2725 7.433 12.441L7.106 13.741H8.917L9.95 9.6C10.21 8.54 10.722 8 11.469 8C11.7344 7.98019 11.9951 8.07797 12.1821 8.26742C12.369 8.45687 12.4633 8.71887 12.44 8.984C12.4426 9.18095 12.4139 9.37706 12.355 9.565L11.827 11.471C11.7509 11.7349 11.7125 12.0083 11.713 12.283C11.6844 12.7217 11.8524 13.1505 12.1714 13.4531C12.4904 13.7557 12.9274 13.9007 13.364 13.849C14.394 13.849 15.112 13.149 15.501 11.768L14.794 11.495C14.518 12.284 14.224 12.668 13.894 12.668C13.653 12.668 13.526 12.501 13.526 12.184C13.5328 12.0177 13.5579 11.8527 13.601 11.692L14.121 9.834C14.2389 9.45171 14.2996 9.05406 14.301 8.654C14.3605 8.1224 14.1931 7.59036 13.84 7.18854C13.4869 6.78672 12.9808 6.55235 12.446 6.543C11.3978 6.68615 10.4928 7.34891 10.04 8.305L10.4 6.688H7.612L7.221 8.088H8.515L7.715 11.276C7.43565 12.0592 6.71859 12.6023 5.889 12.659C5.85818 12.6595 5.82739 12.6571 5.797 12.652C5.554 12.595 5.413 12.502 5.413 12.2C5.41867 11.9504 5.45562 11.7024 5.523 11.462L6.739 6.662H3.665ZM6.01 3.5C5.62058 3.5 5.26074 3.70775 5.06603 4.045C4.87132 4.38225 4.87132 4.79775 5.06603 5.135C5.26074 5.47225 5.62058 5.68 6.01 5.68V5.655C6.30154 5.65736 6.58223 5.54452 6.791 5.341C6.99569 5.13889 7.11001 4.86265 7.108 4.575C7.10031 3.97551 6.60952 3.495 6.01 3.5Z" fill="white"/>
</svg>
